<?xml version="1.0" encoding="UTF-8" standalone="no"?>
<!-- Uploaded to: SVG Repo, www.svgrepo.com, Generator: SVG Repo Mixer Tools -->

<svg
   fill="#000000"
   height="800px"
   width="800px"
   version="1.1"
   id="Layer_1"
   viewBox="0 0 512 512"
   xml:space="preserve"
   sodipodi:docname="fitness1.svg"
   inkscape:version="1.4 (e7c3feb100, 2024-10-09)"
   xmlns:inkscape="http://www.inkscape.org/namespaces/inkscape"
   xmlns:sodipodi="http://sodipodi.sourceforge.net/DTD/sodipodi-0.dtd"
   xmlns="http://www.w3.org/2000/svg"
   xmlns:svg="http://www.w3.org/2000/svg"><defs
   id="defs14" /><sodipodi:namedview
   id="namedview14"
   pagecolor="#ffffff"
   bordercolor="#000000"
   borderopacity="0.25"
   inkscape:showpageshadow="2"
   inkscape:pageopacity="0.0"
   inkscape:pagecheckerboard="0"
   inkscape:deskcolor="#d1d1d1"
   showguides="false"
   inkscape:zoom="1"
   inkscape:cx="738"
   inkscape:cy="280"
   inkscape:window-width="3440"
   inkscape:window-height="1371"
   inkscape:window-x="0"
   inkscape:window-y="0"
   inkscape:window-maximized="1"
   inkscape:current-layer="Layer_1" />
<g
   id="g2">
	<g
   id="g1">
		<path
   d="M256,51.2c-141.38,0-256,114.611-256,256c0,57.711,19.328,110.78,51.55,153.6h408.9C492.672,417.98,512,364.911,512,307.2    C512,165.811,397.38,51.2,256,51.2z M447.266,435.2H64.734C39.091,397.107,25.6,353.118,25.6,307.2    C25.6,180.156,128.956,76.8,256,76.8s230.4,103.356,230.4,230.4C486.4,353.118,472.909,397.107,447.266,435.2z"
   id="path1" />
	</g>
</g>
<g
   id="g4">
	<g
   id="g3">
		<path
   d="M256,89.6c-7.074,0-12.8,5.726-12.8,12.8V128c0,7.074,5.726,12.8,12.8,12.8c7.074,0,12.8-5.726,12.8-12.8v-25.6    C268.8,95.326,263.074,89.6,256,89.6z"
   id="path2" />
	</g>
</g>
<g
   id="g6">
	<g
   id="g5">
		<path
   d="M409.873,153.327c-5.001-5.001-13.107-5.001-18.108,0l-18.099,18.099c-5,5.001-5,13.099,0,18.099    c2.5,2.5,5.777,3.746,9.054,3.746c3.277,0,6.554-1.246,9.054-3.746l18.099-18.099    C414.874,166.426,414.874,158.327,409.873,153.327z"
   id="path4" />
	</g>
</g>
<g
   id="g8">
	<g
   id="g7">
		<path
   d="M460.8,294.4h-25.6c-7.074,0-12.8,5.726-12.8,12.8s5.726,12.8,12.8,12.8h25.6c7.074,0,12.8-5.726,12.8-12.8    S467.874,294.4,460.8,294.4z"
   id="path6" />
	</g>
</g>
<g
   id="g10">
	<g
   id="g9">
		<path
   d="M138.342,171.426l-18.099-18.099c-5.001-5.001-13.099-5.001-18.099,0c-5.001,5-5.001,13.099,0,18.099l18.099,18.099    c2.492,2.5,5.768,3.746,9.045,3.746c3.277,0,6.554-1.246,9.054-3.746C143.343,184.525,143.343,176.427,138.342,171.426z"
   id="path8" />
	</g>
</g>
<g
   id="g12">
	<g
   id="g11">
		<path
   d="M76.8,294.4H51.2c-7.074,0-12.8,5.726-12.8,12.8S44.126,320,51.2,320h25.6c7.074,0,12.8-5.726,12.8-12.8    S83.874,294.4,76.8,294.4z"
   id="path10" />
	</g>
</g>
<g
   id="g14">
	<g
   id="g13">
		<path
   d="M289.894,271.974c-10.778-9.361-24.755-15.147-38.272-20.745c-24.738-10.249-134.733-32.282-156.536-36.591    c-5.103-1.007-10.214-0.427-14.754,1.459c-6.101,2.526-11.187,7.39-13.858,13.858c-4.668,11.273-0.734,24.277,9.404,31.07    c18.466,12.365,111.821,74.564,136.559,84.813c20.275,8.397,43.247,17.911,64.87,8.96c8.013-3.319,18.97-10.675,25.677-26.871    C311.62,307.072,306.85,286.677,289.894,271.974z M279.33,318.123c-2.867,6.929-6.929,10.982-11.827,13.013    c-11.827,4.898-28.552-2.031-45.278-8.96c-23.654-9.796-132.113-82.432-132.113-82.432s128.051,25.335,151.706,35.132    C265.481,284.681,289.126,294.477,279.33,318.123z"
   id="path12" />
	</g>
</g>
</svg>
